<svg width="33" height="32" viewBox="0 0 33 32" fill="none" xmlns="http://www.w3.org/2000/svg">
<path d="M25.6041 28.888L25.6041 27.2044C25.6041 26.4278 24.9637 25.7863 24.1869 25.7863H23.9665C25.318 24.1399 25.6198 22.2801 25.6024 20.873C25.5654 17.8797 23.6842 16.2674 21.6597 14.995C21.2155 14.7158 20.7642 14.45 20.3229 14.19C20.2763 14.1626 20.2298 14.1352 20.1834 14.1079C19.6972 13.8213 19.2255 13.5409 18.7861 13.254C17.9204 12.6888 17.1955 12.1075 16.7442 11.4241V10.8952C18.2724 10.8294 19.5883 9.78732 19.9891 8.30596C20.0917 7.99648 19.9857 7.73079 19.7822 7.5909C19.5859 7.45594 19.3058 7.44706 19.0981 7.62533C18.7482 7.91155 18.3099 8.07009 17.8588 8.07056C16.7721 8.07048 15.9005 7.19623 15.9004 6.10893C15.9007 5.65703 16.0562 5.22106 16.3421 4.87141C16.6587 4.49448 16.3827 3.91984 15.8901 3.93191L15.8772 3.93223L25.6041 28.888ZM25.6041 28.888L25.6041 28.8886M25.6041 28.888C25.6041 28.8882 25.6041 28.8884 25.6041 28.8886M25.6041 28.8886C25.605 29.2057 25.3477 29.463 25.0306 29.4621" fill="#03AA77" stroke="#03AA77" stroke-width="0.3"/>
</svg>
